<svg width="102" height="73" viewBox="0 0 102 73" fill="none" xmlns="http://www.w3.org/2000/svg">
<path d="M12.072 59.636V60.524H9.792V68H8.7V60.524H6.408V59.636H12.072ZM17.8202 68L15.8282 64.58H14.5082V68H13.4162V59.636H16.1162C16.7482 59.636 17.2802 59.744 17.7122 59.96C18.1522 60.176 18.4802 60.468 18.6962 60.836C18.9122 61.204 19.0202 61.624 19.0202 62.096C19.0202 62.672 18.8522 63.18 18.5162 63.62C18.1882 64.06 17.6922 64.352 17.0282 64.496L19.1282 68H17.8202ZM14.5082 63.704H16.1162C16.7082 63.704 17.1522 63.56 17.4482 63.272C17.7442 62.976 17.8922 62.584 17.8922 62.096C17.8922 61.6 17.7442 61.216 17.4482 60.944C17.1602 60.672 16.7162 60.536 16.1162 60.536H14.5082V63.704ZM21.785 59.636V64.928C21.785 65.672 21.965 66.224 22.325 66.584C22.693 66.944 23.201 67.124 23.849 67.124C24.489 67.124 24.989 66.944 25.349 66.584C25.717 66.224 25.901 65.672 25.901 64.928V59.636H26.993V64.916C26.993 65.612 26.853 66.2 26.573 66.68C26.293 67.152 25.913 67.504 25.433 67.736C24.961 67.968 24.429 68.084 23.837 68.084C23.245 68.084 22.709 67.968 22.229 67.736C21.757 67.504 21.381 67.152 21.101 66.68C20.829 66.2 20.693 65.612 20.693 64.916V59.636H21.785ZM31.4666 68.084C30.9146 68.084 30.4186 67.988 29.9786 67.796C29.5466 67.596 29.2066 67.324 28.9586 66.98C28.7106 66.628 28.5826 66.224 28.5746 65.768H29.7386C29.7786 66.16 29.9386 66.492 30.2186 66.764C30.5066 67.028 30.9226 67.16 31.4666 67.16C31.9866 67.16 32.3946 67.032 32.6906 66.776C32.9946 66.512 33.1466 66.176 33.1466 65.768C33.1466 65.448 33.0586 65.188 32.8826 64.988C32.7066 64.788 32.4866 64.636 32.2226 64.532C31.9586 64.428 31.6026 64.316 31.1546 64.196C30.6026 64.052 30.1586 63.908 29.8226 63.764C29.4946 63.62 29.2106 63.396 28.9706 63.092C28.7386 62.78 28.6226 62.364 28.6226 61.844C28.6226 61.388 28.7386 60.984 28.9706 60.632C29.2026 60.28 29.5266 60.008 29.9426 59.816C30.3666 59.624 30.8506 59.528 31.3946 59.528C32.1786 59.528 32.8186 59.724 33.3146 60.116C33.8186 60.508 34.1026 61.028 34.1666 61.676H32.9666C32.9266 61.356 32.7586 61.076 32.4626 60.836C32.1666 60.588 31.7746 60.464 31.2866 60.464C30.8306 60.464 30.4586 60.584 30.1706 60.824C29.8826 61.056 29.7386 61.384 29.7386 61.808C29.7386 62.112 29.8226 62.36 29.9906 62.552C30.1666 62.744 30.3786 62.892 30.6266 62.996C30.8826 63.092 31.2386 63.204 31.6946 63.332C32.2466 63.484 32.6906 63.636 33.0266 63.788C33.3626 63.932 33.6506 64.16 33.8906 64.472C34.1306 64.776 34.2506 65.192 34.2506 65.72C34.2506 66.128 34.1426 66.512 33.9266 66.872C33.7106 67.232 33.3906 67.524 32.9666 67.748C32.5426 67.972 32.0426 68.084 31.4666 68.084ZM41.0056 59.636V60.524H38.7256V68H37.6336V60.524H35.3416V59.636H41.0056ZM50.493 66.14H46.845L46.173 68H45.021L48.045 59.684H49.305L52.317 68H51.165L50.493 66.14ZM50.181 65.252L48.669 61.028L47.157 65.252H50.181ZM59.9709 62.06C59.7389 61.572 59.4029 61.196 58.9629 60.932C58.5229 60.66 58.0109 60.524 57.4269 60.524C56.8429 60.524 56.3149 60.66 55.8429 60.932C55.3789 61.196 55.0109 61.58 54.7389 62.084C54.4749 62.58 54.3429 63.156 54.3429 63.812C54.3429 64.468 54.4749 65.044 54.7389 65.54C55.0109 66.036 55.3789 66.42 55.8429 66.692C56.3149 66.956 56.8429 67.088 57.4269 67.088C58.2429 67.088 58.9149 66.844 59.4429 66.356C59.9709 65.868 60.2789 65.208 60.3669 64.376H57.0309V63.488H61.5309V64.328C61.4669 65.016 61.2509 65.648 60.8829 66.224C60.5149 66.792 60.0309 67.244 59.4309 67.58C58.8309 67.908 58.1629 68.072 57.4269 68.072C56.6509 68.072 55.9429 67.892 55.3029 67.532C54.6629 67.164 54.1549 66.656 53.7789 66.008C53.4109 65.36 53.2269 64.628 53.2269 63.812C53.2269 62.996 53.4109 62.264 53.7789 61.616C54.1549 60.96 54.6629 60.452 55.3029 60.092C55.9429 59.724 56.6509 59.54 57.4269 59.54C58.3149 59.54 59.0989 59.76 59.7789 60.2C60.4669 60.64 60.9669 61.26 61.2789 62.06H59.9709ZM64.0668 60.524V63.32H67.1148V64.22H64.0668V67.1H67.4748V68H62.9748V59.624H67.4748V60.524H64.0668ZM75.7031 68H74.6111L70.2191 61.34V68H69.1271V59.624H70.2191L74.6111 66.272V59.624H75.7031V68ZM77.1566 63.812C77.1566 62.996 77.3406 62.264 77.7086 61.616C78.0766 60.96 78.5766 60.448 79.2086 60.08C79.8486 59.712 80.5566 59.528 81.3326 59.528C82.2446 59.528 83.0406 59.748 83.7206 60.188C84.4006 60.628 84.8966 61.252 85.2086 62.06H83.9006C83.6686 61.556 83.3326 61.168 82.8926 60.896C82.4606 60.624 81.9406 60.488 81.3326 60.488C80.7486 60.488 80.2246 60.624 79.7606 60.896C79.2966 61.168 78.9326 61.556 78.6686 62.06C78.4046 62.556 78.2726 63.14 78.2726 63.812C78.2726 64.476 78.4046 65.06 78.6686 65.564C78.9326 66.06 79.2966 66.444 79.7606 66.716C80.2246 66.988 80.7486 67.124 81.3326 67.124C81.9406 67.124 82.4606 66.992 82.8926 66.728C83.3326 66.456 83.6686 66.068 83.9006 65.564H85.2086C84.8966 66.364 84.4006 66.984 83.7206 67.424C83.0406 67.856 82.2446 68.072 81.3326 68.072C80.5566 68.072 79.8486 67.892 79.2086 67.532C78.5766 67.164 78.0766 66.656 77.7086 66.008C77.3406 65.36 77.1566 64.628 77.1566 63.812ZM92.6902 59.636L89.9662 64.844V68H88.8742V64.844L86.1382 59.636H87.3502L89.4142 63.872L91.4782 59.636H92.6902Z" fill="#221F20"/>
<path d="M45.7748 5.50675C43.8662 5.50675 41.9889 6.32025 40.5497 7.9316V0H37.7181V13.3601C37.7181 17.6936 41.238 21.2135 45.5714 21.2135C49.9049 21.2135 53.4248 17.6936 53.4248 13.3601C53.4248 9.02669 50.1083 5.50675 45.7748 5.50675ZM45.5714 18.1942C42.8963 18.1942 40.7374 16.0353 40.7374 13.3601C40.7374 10.7006 42.8963 8.52607 45.5714 8.52607C48.2466 8.52607 50.4055 10.685 50.4055 13.3601C50.3899 16.0196 48.231 18.1942 45.5714 18.1942ZM63.3589 5.50675C61.4503 5.50675 59.573 6.32025 58.1337 7.9316V0H55.3021V13.3601C55.3021 17.6936 58.8221 21.2135 63.1555 21.2135C67.4889 21.2135 71.0089 17.6936 71.0089 13.3601C71.0089 9.02669 67.6923 5.50675 63.3589 5.50675ZM63.1555 18.1942C60.4803 18.1942 58.3214 16.0353 58.3214 13.3601C58.3214 10.7006 60.4803 8.52607 63.1555 8.52607C65.8307 8.52607 67.9895 10.685 67.9895 13.3601C67.9895 16.0196 65.8307 18.1942 63.1555 18.1942ZM21.7297 14.7368V5.92914H24.7803V14.7055C24.7803 16.9426 26.0788 18.3819 28.269 18.3819C30.4905 18.3819 31.7576 17.0052 31.7576 14.7055V5.92914H34.8239V14.7368C34.8239 18.8043 32.3521 21.2135 28.269 21.2135C24.2797 21.2135 21.7297 18.7261 21.7297 14.7368ZM76.5156 20.8537H73.465V0H76.5156V20.8537ZM93.7555 14.5647H82.1006C82.5386 16.8957 84.1813 18.4758 87.0598 18.4758C88.7494 18.4758 90.7987 17.8344 92.1285 16.8644L93.3957 19.1015C91.8782 20.2436 89.469 21.1822 86.9503 21.1822C81.3653 21.1822 78.9561 17.2712 78.9561 13.3445C78.9561 11.1074 79.6444 9.24571 81.0681 7.77516C82.476 6.3046 84.3377 5.55368 86.5748 5.55368C88.7024 5.55368 90.4859 6.21074 91.8313 7.57178C93.1923 8.93282 93.8807 10.7475 93.8807 13.0785C93.8494 13.5166 93.8337 14.0172 93.7555 14.5647ZM82.0849 12.0773H90.7831C90.5328 9.71503 88.7963 8.19755 86.5435 8.19755C84.2438 8.19755 82.5386 9.74632 82.0849 12.0773ZM12.0616 5.50675C10.153 5.50675 8.27574 6.32025 6.83648 7.9316V0H4.00488V13.3601C4.00488 17.6936 7.52482 21.2135 11.8583 21.2135C16.1917 21.2135 19.7116 17.6936 19.7116 13.3601C19.7116 9.02669 16.3951 5.50675 12.0616 5.50675ZM11.8583 18.1942C9.1831 18.1942 7.02421 16.0353 7.02421 13.3601C7.02421 10.7006 9.1831 8.52607 11.8583 8.52607C14.5334 8.52607 16.6923 10.685 16.6923 13.3601C16.6923 16.0196 14.5334 18.1942 11.8583 18.1942Z" fill="#17313B"/>
<path d="M1.93988 21.2135C3.01124 21.2135 3.87975 20.345 3.87975 19.2736C3.87975 18.2023 3.01124 17.3337 1.93988 17.3337C0.868513 17.3337 0 18.2023 0 19.2736C0 20.345 0.868513 21.2135 1.93988 21.2135Z" fill="#0000FF"/>
<path d="M42.9166 39.8105H38.7246L38.0526 41.7945H35.1886L39.2526 30.5625H42.4206L46.4846 41.7945H43.5886L42.9166 39.8105ZM42.2126 37.6985L40.8206 33.5865L39.4446 37.6985H42.2126Z" fill="#17313B"/>
<path d="M51.1135 32.7385C51.7428 32.7385 52.2922 32.8665 52.7615 33.1225C53.2415 33.3785 53.6095 33.7145 53.8655 34.1305V32.8665H56.6015V41.7785C56.6015 42.5998 56.4362 43.3412 56.1055 44.0025C55.7855 44.6745 55.2895 45.2078 54.6175 45.6025C53.9562 45.9972 53.1295 46.1945 52.1375 46.1945C50.8148 46.1945 49.7428 45.8798 48.9215 45.2505C48.1002 44.6318 47.6308 43.7892 47.5135 42.7225H50.2175C50.3028 43.0638 50.5055 43.3305 50.8255 43.5225C51.1455 43.7252 51.5402 43.8265 52.0095 43.8265C52.5748 43.8265 53.0228 43.6612 53.3535 43.3305C53.6948 43.0105 53.8655 42.4932 53.8655 41.7785V40.5145C53.5988 40.9305 53.2308 41.2718 52.7615 41.5385C52.2922 41.7945 51.7428 41.9225 51.1135 41.9225C50.3775 41.9225 49.7108 41.7358 49.1135 41.3625C48.5162 40.9785 48.0415 40.4398 47.6895 39.7465C47.3482 39.0425 47.1775 38.2318 47.1775 37.3145C47.1775 36.3972 47.3482 35.5918 47.6895 34.8985C48.0415 34.2052 48.5162 33.6718 49.1135 33.2985C49.7108 32.9252 50.3775 32.7385 51.1135 32.7385ZM53.8655 37.3305C53.8655 36.6478 53.6735 36.1092 53.2895 35.7145C52.9162 35.3198 52.4575 35.1225 51.9135 35.1225C51.3695 35.1225 50.9055 35.3198 50.5215 35.7145C50.1482 36.0985 49.9615 36.6318 49.9615 37.3145C49.9615 37.9972 50.1482 38.5412 50.5215 38.9465C50.9055 39.3412 51.3695 39.5385 51.9135 39.5385C52.4575 39.5385 52.9162 39.3412 53.2895 38.9465C53.6735 38.5518 53.8655 38.0132 53.8655 37.3305Z" fill="#17313B"/>
<path d="M66.9969 37.1865C66.9969 37.4425 66.9809 37.7092 66.9489 37.9865H60.7569C60.7995 38.5412 60.9755 38.9678 61.2849 39.2665C61.6049 39.5545 61.9942 39.6985 62.4529 39.6985C63.1355 39.6985 63.6102 39.4105 63.8769 38.8345H66.7889C66.6395 39.4212 66.3675 39.9492 65.9729 40.4185C65.5889 40.8878 65.1035 41.2558 64.5169 41.5225C63.9302 41.7892 63.2742 41.9225 62.5489 41.9225C61.6742 41.9225 60.8955 41.7358 60.2129 41.3625C59.5302 40.9892 58.9969 40.4558 58.6129 39.7625C58.2289 39.0692 58.0369 38.2585 58.0369 37.3305C58.0369 36.4025 58.2235 35.5918 58.5969 34.8985C58.9809 34.2052 59.5142 33.6718 60.1969 33.2985C60.8795 32.9252 61.6635 32.7385 62.5489 32.7385C63.4129 32.7385 64.1809 32.9198 64.8529 33.2825C65.5249 33.6452 66.0475 34.1625 66.4209 34.8345C66.8049 35.5065 66.9969 36.2905 66.9969 37.1865ZM64.1969 36.4665C64.1969 35.9972 64.0369 35.6238 63.7169 35.3465C63.3969 35.0692 62.9969 34.9305 62.5169 34.9305C62.0582 34.9305 61.6689 35.0638 61.3489 35.3305C61.0395 35.5972 60.8475 35.9758 60.7729 36.4665H64.1969Z" fill="#17313B"/>
<path d="M73.8802 32.7705C74.9256 32.7705 75.7576 33.1118 76.3762 33.7945C77.0056 34.4665 77.3202 35.3945 77.3202 36.5785V41.7945H74.6002V36.9465C74.6002 36.3492 74.4456 35.8852 74.1362 35.5545C73.8269 35.2238 73.4109 35.0585 72.8882 35.0585C72.3656 35.0585 71.9496 35.2238 71.6402 35.5545C71.3309 35.8852 71.1762 36.3492 71.1762 36.9465V41.7945H68.4402V32.8665H71.1762V34.0505C71.4536 33.6558 71.8269 33.3465 72.2962 33.1225C72.7656 32.8878 73.2936 32.7705 73.8802 32.7705Z" fill="#17313B"/>
<path d="M78.6775 37.3305C78.6775 36.4025 78.8642 35.5918 79.2375 34.8985C79.6215 34.2052 80.1495 33.6718 80.8215 33.2985C81.5042 32.9252 82.2828 32.7385 83.1575 32.7385C84.2775 32.7385 85.2108 33.0318 85.9575 33.6185C86.7148 34.2052 87.2108 35.0318 87.4455 36.0985H84.5335C84.2882 35.4158 83.8135 35.0745 83.1095 35.0745C82.6082 35.0745 82.2082 35.2718 81.9095 35.6665C81.6108 36.0505 81.4615 36.6052 81.4615 37.3305C81.4615 38.0558 81.6108 38.6158 81.9095 39.0105C82.2082 39.3945 82.6082 39.5865 83.1095 39.5865C83.8135 39.5865 84.2882 39.2452 84.5335 38.5625H87.4455C87.2108 39.6078 86.7148 40.4292 85.9575 41.0265C85.2002 41.6238 84.2668 41.9225 83.1575 41.9225C82.2828 41.9225 81.5042 41.7358 80.8215 41.3625C80.1495 40.9892 79.6215 40.4558 79.2375 39.7625C78.8642 39.0692 78.6775 38.2585 78.6775 37.3305Z" fill="#17313B"/>
<path d="M98.029 32.8665L92.429 46.0345H89.485L91.533 41.4905L87.901 32.8665H90.957L93.021 38.4505L95.069 32.8665H98.029Z" fill="#17313B"/>
</svg>
