<svg version="1.2" xmlns="http://www.w3.org/2000/svg" viewBox="0 0 251 89" width="130" height="46">
	<title>logo-svg</title>
	<defs>
		<clipPath clipPathUnits="userSpaceOnUse" id="cp1">
			<path d="m0 0h251v89h-251z"/>
		</clipPath>
	</defs>
	<style>
		.s0 { fill: #888887 } 
		.s1 { fill: #bf1622 } 
		.s2 { fill: #1d1d1b } 
	</style>
	<g id="Clip-Path" clip-path="url(#cp1)">
		<g id="Layer">
			<path id="Layer" class="s0" d="m198.4 50.9l0.6-3.1-1.6-4.5h1.5l0.7 2.2c0.2 0.6 0.2 1 0.3 1.3 0.2-0.3 0.5-0.8 0.9-1.3l1.4-2.2h1.7l-3.5 4.5-0.6 3.1h-1.4z"/>
			<path id="Layer" fill-rule="evenodd" class="s0" d="m210.9 46.3c0 1.4-0.6 2.8-1.5 3.7-0.7 0.7-1.7 1-2.9 1-2.1 0-3.2-1.4-3.2-3.1 0-1.4 0.5-2.8 1.5-3.7 0.7-0.6 1.8-1 2.9-1 2.1 0 3.2 1.4 3.2 3.1zm-5-1.4c-0.7 0.7-1.1 2-1.1 2.9 0 1.2 0.5 2.1 1.9 2.1 0.6 0 1.1-0.2 1.6-0.6 0.7-0.7 1.1-2 1.1-2.9 0-1-0.4-2.1-1.9-2.1-0.6 0-1.2 0.2-1.6 0.6z"/>
			<path id="Layer" class="s0" d="m214.2 43.3l-0.9 4.4q-0.1 0.5-0.1 1c0.1 0.8 0.5 1.2 1.4 1.2 1 0 1.7-0.6 2-2.1l0.9-4.5h1.4l-0.9 4.4c-0.5 2.3-1.6 3.4-3.6 3.4-1.5 0-2.6-0.8-2.6-2.4 0-0.3 0.1-0.7 0.1-1.1l0.9-4.3z"/>
			<path id="Layer" fill-rule="evenodd" class="s0" d="m220.6 43.4c0.5-0.1 1.3-0.2 2-0.2 0.8 0 1.5 0.2 2 0.5 0.5 0.3 0.8 0.8 0.8 1.4 0 1.1-0.8 1.9-1.9 2.2 0.5 0.2 0.8 0.8 0.9 1.5 0 0.9 0.1 1.8 0.2 2.1h-1.4c-0.1-0.2-0.2-0.9-0.2-1.8-0.1-1-0.5-1.3-1.2-1.3h-0.7l-0.7 3.1h-1.3l1.5-7.5zm0.7 3.4h0.8c1.1 0 1.8-0.7 1.8-1.5 0-0.7-0.6-1-1.4-1q-0.5 0-0.7 0.1z"/>
			<path id="Layer" class="s0" d="m194.8 60.2c0.5 0.3 1.1 0.5 1.9 0.5 0.7 0 1.5-0.4 1.5-1.2 0-0.5-0.4-0.8-1.2-1.2-0.9-0.5-1.6-1.1-1.6-2 0-1.5 1.3-2.4 3-2.4 0.9 0 1.5 0.2 1.8 0.4l-0.5 1.1c-0.2-0.1-0.8-0.3-1.5-0.3-0.9 0-1.4 0.5-1.4 1 0 0.5 0.5 0.8 1.3 1.2 1 0.5 1.6 1.1 1.6 2 0 1.6-1.4 2.5-3.2 2.5-1 0-1.8-0.3-2.2-0.5l0.5-1.1z"/>
			<path id="Layer" fill-rule="evenodd" class="s0" d="m208.3 57.1c0 1.3-0.5 2.7-1.4 3.6-0.8 0.7-1.8 1.1-3 1.1-2.1 0-3.2-1.4-3.2-3.1 0-1.4 0.6-2.8 1.6-3.7 0.7-0.7 1.7-1.1 2.8-1.1 2.2 0 3.2 1.5 3.2 3.2zm-5-1.4c-0.7 0.7-1.1 1.9-1.1 2.9 0 1.1 0.6 2.1 1.9 2.1 0.6 0 1.2-0.2 1.6-0.6 0.7-0.7 1.1-2 1.1-3 0-0.9-0.3-2.1-1.8-2.1-0.7 0-1.2 0.3-1.7 0.7z"/>
			<path id="Layer" class="s0" d="m210.3 54.1h4.5l-0.2 1.1h-3.1l-0.4 2.1h2.8l-0.2 1.1h-2.9l-0.6 3.3h-1.4l1.5-7.6z"/>
			<path id="Layer" class="s0" d="m217.5 55.2h-2.3l0.3-1.1h5.9l-0.2 1.1h-2.3l-1.3 6.5h-1.4l1.3-6.5z"/>
			<path id="Layer" class="s0" d="m222.5 61.7l-0.4-7.6h1.4l0.1 3.9c0 0.9 0 1.6 0 2.2 0.3-0.6 0.5-1.3 0.9-2.2l1.8-3.9h1.6v3.8c0.1 1 0 1.7 0 2.3 0.3-0.7 0.6-1.4 0.9-2.2l1.7-3.9h1.5l-3.6 7.6h-1.6l-0.1-3.7c0-0.9 0-1.5 0.1-2.4h-0.1c-0.3 0.8-0.5 1.5-0.9 2.4l-1.8 3.7h-1.5z"/>
			<path id="Layer" fill-rule="evenodd" class="s0" d="m232.9 59.5l-1.1 2.2h-1.5l4.1-7.6h1.8l1 7.6h-1.5l-0.2-2.2zm2.5-1l-0.2-1.9c-0.1-0.4-0.1-1-0.1-1.5h-0.1c-0.2 0.5-0.4 1-0.6 1.5l-1 1.9z"/>
			<path id="Layer" fill-rule="evenodd" class="s0" d="m239.7 54.2c0.5-0.1 1.3-0.2 2-0.2 0.8 0 1.6 0.1 2.1 0.5 0.4 0.3 0.8 0.8 0.8 1.4 0 1.1-0.9 1.9-1.9 2.2h-0.1c0.6 0.2 0.8 0.7 0.9 1.4 0.1 1 0.1 1.9 0.3 2.2h-1.5c0-0.2-0.1-0.9-0.2-1.8-0.1-1-0.4-1.4-1.2-1.4h-0.7l-0.6 3.2h-1.4l1.5-7.5zm0.7 3.3h0.8c1.1 0 1.9-0.6 1.9-1.4 0-0.7-0.6-1.1-1.4-1.1q-0.5 0-0.8 0.1z"/>
			<path id="Layer" class="s0" d="m250 58.3h-3l-0.4 2.3h3.3l-0.3 1.1h-4.7l1.6-7.6h4.5l-0.2 1.1h-3.2l-0.4 2h3l-0.2 1.1z"/>
			<path id="Layer" class="s0" d="m193.9 64.8h4.5l-0.2 1.1h-3.1l-0.5 2.2h2.9l-0.2 1.1h-2.9l-0.6 3.2h-1.5l1.6-7.6z"/>
			<path id="Layer" fill-rule="evenodd" class="s0" d="m199.5 70.3l-1.1 2.1h-1.5l4.1-7.6h1.8l1 7.6h-1.5l-0.2-2.1zm2.5-1.1l-0.2-1.9c-0.1-0.4-0.1-1-0.2-1.4-0.2 0.4-0.4 1-0.7 1.4l-0.9 1.9z"/>
			<path id="Layer" class="s0" d="m210.4 72.2c-0.5 0.2-1.2 0.3-2.2 0.3-2.1 0-3.5-1.2-3.5-3.2 0-1.5 0.8-2.9 2-3.7q1.2-0.9 3-0.9c0.9 0 1.5 0.2 1.8 0.3l-0.4 1.1c-0.3-0.1-0.9-0.3-1.6-0.3-0.7 0-1.5 0.3-2.1 0.7-0.7 0.6-1.1 1.6-1.1 2.7 0 1.3 0.7 2.2 2.3 2.2 0.6 0 1.2-0.1 1.6-0.3l0.2 1.1z"/>
			<path id="Layer" class="s0" d="m214.1 66h-2.2l0.2-1.2h6l-0.3 1.2h-2.3l-1.3 6.4h-1.4l1.3-6.4z"/>
			<path id="Layer" fill-rule="evenodd" class="s0" d="m225.2 67.8c0 1.4-0.6 2.8-1.5 3.7-0.8 0.7-1.8 1.1-2.9 1.1-2.1 0-3.2-1.5-3.2-3.2 0-1.3 0.5-2.8 1.5-3.6 0.7-0.7 1.7-1.1 2.8-1.1 2.2 0 3.3 1.4 3.3 3.1zm-5-1.3c-0.7 0.6-1.2 1.9-1.2 2.8 0 1.2 0.6 2.1 2 2.1 0.6 0 1.1-0.2 1.6-0.6 0.7-0.6 1.1-2 1.1-2.9 0-1-0.4-2.1-1.9-2.1-0.6 0-1.2 0.2-1.6 0.7z"/>
			<path id="Layer" fill-rule="evenodd" class="s0" d="m227.1 64.9c0.6-0.1 1.3-0.1 2-0.1 0.8 0 1.6 0.1 2.1 0.5 0.5 0.2 0.8 0.7 0.8 1.3 0 1.1-0.9 1.9-1.9 2.2 0.5 0.2 0.7 0.8 0.8 1.5 0.1 0.9 0.2 1.8 0.3 2.1h-1.5c0-0.2-0.1-0.9-0.2-1.8 0-1-0.4-1.3-1.2-1.3h-0.7l-0.6 3.1h-1.4l1.5-7.5zm0.7 3.4h0.8c1.1 0 1.9-0.7 1.9-1.5 0-0.7-0.6-1-1.4-1q-0.5 0-0.8 0.1z"/>
			<path id="Layer" class="s0" d="m233.7 72.4l0.6-3.1-1.5-4.5h1.5l0.6 2.2c0.2 0.6 0.3 1 0.3 1.3h0.1c0.2-0.3 0.5-0.8 0.8-1.3l1.5-2.2h1.7l-3.6 4.5-0.6 3.1h-1.4z"/>
			<path id="Layer" class="s1" d="m22.6 56.7h-22.6l9.7-42.6h22.6z"/>
			<path id="Layer" class="s1" d="m33.3 21.2l-15.2 67.8h22.5l15.3-67.8z"/>
			<path id="Layer" class="s1" d="m63.2 0l-15.3 67.8h22.6l15.3-67.8z"/>
			<path id="Layer" class="s2" d="m148.7 20.2c1.8-9 9.9-15.1 19-15.1 7.6 0 10.5 4.4 11.4 8.5l-8.2 3.5c-0.3-2.3-2.2-4.2-4.8-4.2-4.2 0-7.7 3.2-8.5 7.3-0.8 4.1 1.4 7.3 5.6 7.3 2.6 0 5.2-2 6.4-4.2l6.9 3.5c-2.5 3.9-7.3 8.5-14.9 8.5-9.1 0-14.7-6.1-12.9-15.1z"/>
			<path id="Layer" class="s2" d="m196.8 34.8l2.2-11.2h-10.4l-2.2 11.2h-8.8l5.9-29.2h8.7l-2 10.3h10.4l2-10.3h8.8l-5.8 29.2z"/>
			<path id="Layer" class="s2" d="m218 34.8l2.3-11.6-7.3-17.6h9.8l3.4 9.8 7.3-9.8h9.9l-14.3 17.6-2.3 11.6z"/>
			<path id="Layer" class="s2" d="m78.1 68.4l5.9-6.6c1.7 2.1 4.7 3.8 8.6 3.8 1.6 0 3.3-0.5 3.5-1.6 0.6-2.8-16.2 0-13.9-11.5 1-4.9 6.1-9.7 14-9.7 4.7 0 8.7 1.4 11.5 4.1l-6 6.3c-2.1-2-5.2-2.9-7.9-2.9-1.7 0-2.3 0.6-2.5 1.3-0.5 2.8 16 0.4 13.9 11.2-1.3 6.5-6.8 10.2-14.6 10.2-6.1 0-10-1.8-12.5-4.6z"/>
			<path id="Layer" fill-rule="evenodd" class="s2" d="m107.5 57.9c1.8-9 9.9-15.1 18.9-15.1 8.9 0 14.6 6.1 12.8 15.1-1.8 9-9.9 15.1-18.9 15.1-8.9 0-14.6-6.1-12.8-15.1zm22.8 0c0.8-4.1-1.3-7.3-5.5-7.3-4.2 0-7.6 3.2-8.4 7.3-0.8 4.1 1.3 7.3 5.5 7.3 4.2 0 7.6-3.2 8.4-7.3z"/>
			<path id="Layer" class="s2" d="m139.4 72.5l5.8-29.2h22l-1.5 7.7h-13.2l-0.6 2.9h12.9l-1.5 7.7h-12.9l-2.2 10.9h-8.8z"/>
			<path id="Layer" class="s2" d="m171.3 72.5l4.3-21.5h-7.7l1.5-7.7h24.3l-1.6 7.7h-7.7l-4.3 21.5z"/>
			<path id="Layer" class="s2" d="m139.2 5.6h-15.5l-1.5 7.7h8.8 5.3c1.5 0 2.7 0.7 2.4 2.2-0.3 1.7-1.8 2.4-3.3 2.4h-5.4-8.7l-3.4 16.9h8.8l1.8-9.2h3.2l2.1 9.2h10l-3.2-10.4c2.6-1.1 6-3.8 7-8.8 1.1-5.5-1.6-10-8.4-10z"/>
			<path id="Layer" class="s2" d="m111.5 5.6h-11l-16.6 29.2h10l1.7-3.5 3.9-7.7 4.7-9.4 1 9.4h-4.8l0.7 7.7h4.9l0.4 3.5h9.9z"/>
		</g>
	</g>
</svg>