<svg width="127" height="45" viewBox="0 0 127 45" fill="none" xmlns="http://www.w3.org/2000/svg">
<path d="M100.369 25.7472L100.695 24.1642L99.8905 21.8955H100.651L100.976 22.9933C101.069 23.324 101.11 23.4974 101.149 23.6682H101.16C101.269 23.4866 101.406 23.267 101.589 22.9824L102.33 21.8955H103.175L101.403 24.1534L101.077 25.7472H100.366H100.369Z" fill="#D9D9D9"/>
<path d="M106.695 23.4268C106.695 24.1126 106.432 24.8227 105.948 25.2672C105.573 25.6115 105.073 25.8093 104.471 25.8093C103.405 25.8093 102.847 25.0829 102.847 24.221C102.847 23.5352 103.123 22.8142 103.618 22.3697C103.993 22.0336 104.512 21.833 105.07 21.833C106.172 21.833 106.695 22.5486 106.695 23.4268ZM104.17 22.7248C103.809 23.0609 103.602 23.6897 103.602 24.1884C103.602 24.7712 103.883 25.251 104.575 25.251C104.876 25.251 105.163 25.1317 105.379 24.9257C105.735 24.595 105.937 23.9364 105.937 23.4512C105.937 22.966 105.749 22.3941 104.988 22.3941C104.671 22.3941 104.395 22.5188 104.173 22.7248H104.17Z" fill="#D9D9D9"/>
<path d="M108.404 21.8955L107.945 24.1425C107.915 24.2862 107.896 24.4461 107.896 24.6114C107.901 25.0072 108.153 25.2511 108.577 25.2511C109.085 25.2511 109.436 24.9313 109.594 24.1479L110.054 21.8955H110.77L110.311 24.1371C110.073 25.2972 109.496 25.8122 108.484 25.8122C107.704 25.8122 107.185 25.4354 107.185 24.6223C107.185 24.4569 107.209 24.2672 107.239 24.091L107.688 21.8955H108.404Z" fill="#D9D9D9"/>
<path d="M111.611 21.9574C111.873 21.9005 112.262 21.8652 112.628 21.8652C113.027 21.8652 113.408 21.9384 113.665 22.1173C113.897 22.2664 114.056 22.4995 114.056 22.8139C114.056 23.3804 113.626 23.768 113.098 23.9171L113.093 23.9334C113.364 24.0309 113.479 24.2993 113.517 24.6652C113.566 25.145 113.596 25.5922 113.665 25.7467H112.929C112.899 25.6545 112.855 25.2886 112.819 24.8251C112.789 24.3345 112.598 24.1556 112.218 24.1556H111.868L111.542 25.744H110.837L111.608 21.9547L111.611 21.9574ZM111.972 23.6488H112.376C112.934 23.6488 113.309 23.3289 113.309 22.9115C113.309 22.5564 113.008 22.3965 112.603 22.3965C112.426 22.3965 112.308 22.4073 112.223 22.4317L111.972 23.6488Z" fill="#D9D9D9"/>
<path d="M98.571 30.4226C98.8035 30.5663 99.1399 30.6693 99.5037 30.6693C99.903 30.6693 100.269 30.4687 100.269 30.0974C100.269 29.8453 100.092 29.6745 99.6869 29.4739C99.2083 29.2327 98.8473 28.9264 98.8473 28.4683C98.8473 27.7311 99.5338 27.2676 100.368 27.2676C100.827 27.2676 101.128 27.376 101.287 27.4627L101.054 28.0184C100.92 27.9506 100.644 27.8422 100.308 27.8476C99.8538 27.8476 99.5967 28.0943 99.5967 28.3518C99.5967 28.6093 99.8292 28.7692 100.215 28.9752C100.718 29.2219 101.019 29.5309 101.019 29.9971C101.019 30.7696 100.352 31.2439 99.4244 31.2439C98.9211 31.2439 98.5109 31.1138 98.3276 30.9756L98.5738 30.428L98.571 30.4226Z" fill="#D9D9D9"/>
<path d="M105.412 28.8643C105.412 29.5501 105.149 30.2602 104.665 30.7047C104.29 31.049 103.787 31.2468 103.188 31.2468C102.121 31.2468 101.563 30.5204 101.563 29.6585C101.563 28.9727 101.84 28.2517 102.335 27.8072C102.709 27.4711 103.229 27.2705 103.787 27.2705C104.889 27.2705 105.412 27.9861 105.412 28.8643ZM102.887 28.1623C102.526 28.4984 102.318 29.1272 102.318 29.6259C102.318 30.2087 102.6 30.6885 103.292 30.6885C103.593 30.6885 103.88 30.5692 104.096 30.3632C104.452 30.0325 104.654 29.3739 104.654 28.8887C104.654 28.4035 104.465 27.8316 103.705 27.8316C103.388 27.8316 103.111 27.9563 102.89 28.1623H102.887Z" fill="#D9D9D9"/>
<path d="M106.42 27.3325H108.701L108.578 27.899H107.021L106.8 28.9859H108.247L108.129 29.547H106.682L106.351 31.1869H105.635L106.42 27.3352V27.3325Z" fill="#D9D9D9"/>
<path d="M110.041 27.9153H108.895L109.018 27.3325H112.029L111.906 27.9153H110.754L110.092 31.1842H109.376L110.043 27.9153H110.041Z" fill="#D9D9D9"/>
<path d="M112.57 31.1842L112.392 27.3325H113.108L113.152 29.3166C113.158 29.7964 113.147 30.1515 113.133 30.455H113.144C113.272 30.1352 113.396 29.8045 113.603 29.3356L114.528 27.3352H115.307L115.337 29.2787C115.343 29.7584 115.337 30.1189 115.318 30.4388H115.329C115.463 30.0729 115.6 29.7069 115.764 29.3193L116.653 27.3352H117.408L115.545 31.1869H114.774L114.714 29.3302C114.703 28.8829 114.708 28.5712 114.738 28.1294H114.719C114.577 28.5251 114.449 28.8829 114.26 29.3004L113.352 31.1869H112.567L112.57 31.1842Z" fill="#D9D9D9"/>
<path d="M117.867 30.0864L117.304 31.1842H116.543L118.616 27.3325H119.511L120.033 31.1842H119.284L119.166 30.0864H117.867ZM119.125 29.5714L119.008 28.6119C118.988 28.4059 118.964 28.1077 118.947 27.88H118.936C118.827 28.1077 118.715 28.3842 118.6 28.6119L118.097 29.5714H119.128H119.125Z" fill="#D9D9D9"/>
<path d="M121.292 27.3949C121.554 27.338 121.943 27.3027 122.309 27.3027C122.708 27.3027 123.089 27.3759 123.346 27.5548C123.578 27.7039 123.737 27.937 123.737 28.2514C123.737 28.8179 123.307 29.2055 122.779 29.3546L122.774 29.3709C123.045 29.4684 123.16 29.7368 123.198 30.1027C123.247 30.5825 123.277 31.0297 123.346 31.1842H122.61C122.58 31.092 122.536 30.7261 122.5 30.2626C122.47 29.772 122.279 29.5931 121.899 29.5931H121.549L121.223 31.1815H120.518L121.289 27.3922L121.292 27.3949ZM121.653 29.0863H122.057C122.615 29.0863 122.99 28.7664 122.99 28.349C122.99 27.9939 122.689 27.834 122.284 27.834C122.107 27.834 121.989 27.8448 121.904 27.8692L121.653 29.0863Z" fill="#D9D9D9"/>
<path d="M126.472 29.4684H124.99L124.757 30.6177H126.426L126.308 31.1842H123.923L124.708 27.3325H127L126.882 27.899H125.307L125.099 28.91H126.59L126.472 29.4711V29.4684Z" fill="#D9D9D9"/>
<path d="M98.1073 32.7671H100.388L100.265 33.3336H98.709L98.4875 34.4205H99.9343L99.8167 34.9816H98.3699L98.039 36.6214H97.3224L98.1073 32.7698V32.7671Z" fill="#D9D9D9"/>
<path d="M100.957 35.5239L100.393 36.6217H99.6331L101.706 32.77H102.601L103.123 36.6217H102.374L102.256 35.5239H100.957ZM102.215 35.0089L102.097 34.0494C102.078 33.8434 102.054 33.5452 102.037 33.3175H102.026C101.917 33.5452 101.805 33.8217 101.69 34.0494L101.187 35.0089H102.218H102.215Z" fill="#D9D9D9"/>
<path d="M106.435 36.505C106.214 36.5972 105.842 36.6758 105.355 36.6758C104.283 36.6758 103.596 36.0578 103.596 35.0576C103.596 34.258 103.963 33.5776 104.565 33.1602C104.994 32.8566 105.508 32.7021 106.104 32.7021C106.558 32.7021 106.889 32.8051 107.004 32.8783L106.796 33.415C106.662 33.3473 106.381 33.2768 106.017 33.2768C105.626 33.2768 105.246 33.4015 104.961 33.6319C104.6 33.93 104.368 34.4152 104.368 34.9763C104.368 35.6214 104.723 36.1093 105.538 36.1093C105.839 36.1093 106.145 36.0578 106.367 35.9602L106.435 36.5023V36.505Z" fill="#D9D9D9"/>
<path d="M108.347 33.3499H107.201L107.325 32.7671H110.336L110.213 33.3499H109.061L108.399 36.6187H107.683L108.35 33.3499H108.347Z" fill="#D9D9D9"/>
<path d="M113.927 34.3013C113.927 34.9871 113.665 35.6972 113.181 36.1417C112.806 36.486 112.303 36.6839 111.704 36.6839C110.637 36.6839 110.079 35.9574 110.079 35.0955C110.079 34.4097 110.355 33.6887 110.85 33.2442C111.225 32.9081 111.745 32.7075 112.303 32.7075C113.405 32.7075 113.927 33.4231 113.927 34.3013ZM111.403 33.5993C111.042 33.9354 110.834 34.5642 110.834 35.063C110.834 35.6457 111.116 36.1255 111.808 36.1255C112.108 36.1255 112.396 36.0062 112.612 35.8002C112.967 35.4695 113.17 34.8109 113.17 34.3257C113.17 33.8405 112.981 33.2686 112.221 33.2686C111.901 33.2686 111.627 33.3933 111.406 33.5993H111.403Z" fill="#D9D9D9"/>
<path d="M114.925 32.8324C115.187 32.7755 115.575 32.7402 115.942 32.7402C116.341 32.7402 116.721 32.8134 116.978 32.9923C117.211 33.1414 117.37 33.3745 117.37 33.6889C117.37 34.2554 116.94 34.643 116.412 34.7921L116.407 34.8084C116.678 34.9059 116.793 35.1743 116.831 35.5402C116.88 36.02 116.91 36.4672 116.978 36.6217H116.243C116.213 36.5295 116.169 36.1636 116.133 35.7001C116.103 35.2095 115.912 35.0306 115.532 35.0306H115.182L114.856 36.619H114.15L114.922 32.8297L114.925 32.8324ZM115.286 34.5238H115.69C116.248 34.5238 116.623 34.2039 116.623 33.7865C116.623 33.4314 116.322 33.2715 115.917 33.2715C115.74 33.2715 115.622 33.2823 115.537 33.3067L115.286 34.5238Z" fill="#D9D9D9"/>
<path d="M118.249 36.6217L118.575 35.0387L117.77 32.77H118.531L118.856 33.8678C118.949 34.1985 118.99 34.3719 119.029 34.5427H119.039C119.149 34.3611 119.286 34.1415 119.469 33.8569L120.21 32.77H121.055L119.283 35.0279L118.957 36.6217H118.246H118.249Z" fill="#D9D9D9"/>
<path d="M11.4296 28.6665H0L4.90662 7.12061H16.339L11.4296 28.6665Z" fill="#BF1522"/>
<path d="M16.8585 10.709L9.13484 44.9998H20.5645L28.2882 10.709H16.8585Z" fill="#BF1522"/>
<path d="M31.9745 0L24.2509 34.2908H35.6805L43.4042 0H31.9745Z" fill="#BF1522"/>
<path d="M75.2373 10.2049C76.1508 5.64578 80.2396 2.56934 84.8345 2.56934C88.6799 2.56934 90.1623 4.8272 90.6327 6.8628L86.4481 8.65716C86.3059 7.50519 85.3623 6.51043 84.0441 6.51043C81.9135 6.51043 80.1549 8.14759 79.7419 10.2076C79.3289 12.2676 80.4311 13.9047 82.5617 13.9047C83.88 13.9047 85.2228 12.91 85.8273 11.758L89.298 13.528C88.0454 15.4985 85.6194 17.8431 81.774 17.8431C77.1792 17.8431 74.3293 14.745 75.2373 10.2049Z" fill="white"/>
<path d="M99.5646 17.5777L100.694 11.9344H95.4401L94.3106 17.5777H89.8717L92.8282 2.81348H97.2671L96.2196 8.03665H101.474L102.521 2.81348H106.96L104.003 17.5777H99.5646Z" fill="white"/>
<path d="M110.292 17.5777L111.465 11.7121L107.753 2.81348H112.742L114.471 7.79541L118.149 2.81348H123.138L115.904 11.7121L114.73 17.5777H110.292Z" fill="white"/>
<path d="M39.5178 34.5672L42.4908 31.2468C43.3769 32.3093 44.8566 33.1496 46.834 33.1496C47.6681 33.1496 48.5051 32.9273 48.6199 32.3527C48.9044 30.9351 40.4395 32.3743 41.6046 26.5522C42.1051 24.0503 44.6514 21.6597 48.6719 21.6597C51.0678 21.6597 53.0835 22.3454 54.4783 23.7197L51.4698 26.8855C50.3895 25.9125 48.8387 25.4246 47.4548 25.4246C46.5769 25.4246 46.276 25.7119 46.1994 26.0887C45.9205 27.4819 54.3142 26.2865 53.2148 31.778C52.5638 35.0307 49.7905 36.9145 45.8548 36.9145C42.7342 36.9145 40.7896 35.9848 39.5123 34.5672H39.5178Z" fill="white"/>
<path d="M54.3826 29.2762C55.2906 24.7388 59.4068 21.6406 63.9333 21.6406C68.4597 21.6406 71.3342 24.7388 70.4262 29.2762C69.5182 33.8136 65.402 36.9144 60.8728 36.9144C56.3436 36.9144 53.4718 33.8163 54.3799 29.2762H54.3826ZM65.9216 29.2762C66.3346 27.2162 65.2762 25.579 63.1456 25.579C61.015 25.579 59.3002 27.2162 58.8899 29.2762C58.4769 31.3362 59.5354 32.9733 61.666 32.9733C63.7965 32.9733 65.5114 31.3362 65.9244 29.2762H65.9216Z" fill="white"/>
<path d="M70.5332 36.649L73.4897 21.8848H84.6103L83.8308 25.7798H77.1492L76.8565 27.2408H83.385L82.6055 31.1358H76.0771L74.9721 36.6463H70.5332V36.649Z" fill="white"/>
<path d="M86.6879 36.649L88.865 25.7798H84.9293L85.7088 21.8848H97.9945L97.215 25.7798H93.3039L91.1269 36.649H86.6879Z" fill="white"/>
<path d="M70.4286 2.81055H62.6037L61.8215 6.7137H66.2604V6.70556H68.9654C69.712 6.70556 70.3466 7.06064 70.1852 7.85753C70.0211 8.67611 69.2471 9.03119 68.5004 9.03119H65.7982L61.3593 9.02848L59.6472 17.5775H64.0861L65.016 12.9289H66.6215L67.7127 17.5775H72.767L71.1534 12.3543C72.4334 11.7797 74.1756 10.4271 74.687 7.88193C75.2422 5.11449 73.8556 2.81326 70.4286 2.81326V2.81055Z" fill="white"/>
<path d="M56.4067 2.81055H50.8246L42.4609 17.5775H47.4933L48.3658 15.8509L50.3514 11.9531H50.335L52.7364 7.19346L53.2341 11.9531H50.8136L51.1391 15.8454L53.6416 15.8509L53.8222 17.5775H58.8573L56.4067 2.81055Z" fill="white"/>
</svg>
